<svg id="svg" version="1.1" viewBox="0 0 300 300" width="300" height="300" xmlns="http://www.w3.org/2000/svg"><svg xmlns="http://www.w3.org/2000/svg"><defs><clipPath id="clip-1"><rect x="0" y="0" transform="scale(0.14648,0.14648)" width="2048" height="2048" fill="none"/></clipPath></defs><g clip-path="url(#clip-1)" fill="none" fill-rule="nonzero" stroke="none" stroke-width="1" stroke-linecap="butt" stroke-linejoin="miter" stroke-miterlimit="10" stroke-dasharray="" stroke-dashoffset="0" font-family="none" font-weight="none" font-size="none" text-anchor="none" style="mix-blend-mode: normal"><path d="M146.39209,32.69883c1.49121,-0.08921 7.50293,-0.29048 8.31152,0.4374c0.52734,0.47461 2.9209,6.47285 3.39258,7.58804c11.96045,28.13145 24.30322,56.0981 37.02686,83.89219c5.16357,11.35898 10.37842,22.68677 15.62842,34.00415c0.37061,0.90234 1.11768,2.42432 1.06201,3.40283c-0.43799,7.69043 -2.3291,16.85156 -5.04346,23.9458c-1.01953,-1.42969 -3.60791,-7.85303 -4.31543,-9.68115c-1.80176,-0.13623 -4.38135,-0.07617 -6.20947,-0.07617l-9.99463,0.00293l-32.1123,-0.01172l-35.63862,-0.00439c-7.03813,-0.04395 -14.07671,-0.02783 -21.11455,0.04834c-0.57612,1.34766 -3.35303,8.64258 -4.13687,9.03955c-0.28096,-0.26074 -0.38174,-0.48926 -0.52251,-0.93018c-2.31606,-7.34326 -4.43306,-15.21387 -4.78564,-22.92187c-0.02974,-0.64893 2.71216,-6.30908 3.12568,-7.19092c1.9311,-4.0752 3.83423,-8.16299 5.70879,-12.26455l27.79658,-61.04399c4.92305,-11.0313 9.74355,-22.47407 14.54077,-33.59194l4.27764,-9.99419c0.51079,-1.1918 0.97251,-2.39136 1.46646,-3.58477c0.28418,-0.68628 0.87788,-0.88784 1.53618,-1.06538zM123.2811,161.29541c9.00527,-0.09961 18.14429,-0.01611 27.15542,-0.00293l16.78857,-0.02051c3.09375,-0.00732 6.48193,0.06445 9.53906,-0.07764c-5.73779,-13.0459 -11.55176,-26.05854 -17.44043,-39.03691c-1.1792,-2.62383 -8.46533,-19.40186 -9.36768,-20.26157c-1.87646,3.41484 -4.33667,9.46626 -6.01802,13.21055l-11.32559,25.17773c-1.9645,4.40317 -3.95757,8.79302 -5.97905,13.17144c-0.84404,1.84131 -2.90229,6.13623 -3.35229,7.83984zM100.2293,170.51074c1.59639,-0.50391 6.36431,-2.8374 8.07349,-3.68848c2.49917,-1.24658 7.09702,-3.08789 9.40503,-4.44873c2.32134,-4.4707 5.09736,-11.24854 7.229,-15.99434l13.17451,-29.17734l6.45293,-14.43721c1.03623,-2.27915 2.74482,-5.11582 3.2707,-7.51113c0.43945,-1.99614 0.39111,-26.62061 0.04688,-28.50703l-0.11279,-0.12363c-1.00781,1.50981 -3.20698,6.55298 -4.06187,8.43325l-5.99531,12.94688l-24.45161,52.99409c-1.57134,3.41528 -13.36333,28.44287 -13.25186,29.4668zM182.10645,162.33838c1.60986,1.12793 16.29199,8.08447 17.81104,8.42432c-0.44824,-1.53955 -2.61914,-6.09375 -3.38232,-7.78564l-7.27881,-16.01807l-29.84766,-65.24004c-0.89502,-1.92319 -6.43359,-14.36265 -7.32568,-15.2644c-0.44678,5.85732 -0.00146,12.946 -0.1626,18.94585c-0.05859,2.23213 -0.05566,7.95205 0.17871,9.87407c0.10693,0.88169 3.06152,7.03667 3.59619,8.20708l7.42822,16.41929l13.5835,30.27349c1.65527,3.6665 3.65332,8.77881 5.39941,12.16406z" fill="#e1e1e0"/><path d="M179.56055,75.12744c15.58301,4.1896 30.80127,13.89111 40.04443,27.30864c13.92773,20.2147 16.08691,47.29878 11.9751,70.93257c-4.16602,23.30713 -14.13135,45.18896 -28.97754,63.63281c-6.03223,7.54395 -12.76904,14.45801 -20.69678,20.02588c-8.21631,5.77148 -18.72656,10.17773 -28.74463,11.33936c-6.80684,0.78809 -13.67358,0.32813 -20.40425,-0.87451c-28.2019,-5.03906 -58.43687,-24.99902 -74.82524,-48.48047c-3.32754,-4.30371 -9.56396,-14.45068 -11.24692,-19.7417l0.09727,-0.13184c1.26401,1.99365 3.56748,4.77393 5.1293,6.5874c6.28579,7.37256 13.47627,13.92188 21.40122,19.49414c4.65806,3.24902 9.53159,6.17725 14.58662,8.76563c13.39365,6.84521 40.71782,17.39795 55.44551,18.71484c3.07705,0.28271 6.17783,0.13477 9.21445,-0.43652c16.40918,-2.96045 32.34375,-15.11426 41.65283,-28.76807c16.85889,-25.26123 27.58447,-58.15137 22.57178,-88.6251c-3.50977,-21.34321 -15.58887,-43.09688 -34.56592,-54.31128c-1.32715,-0.78369 -2.48877,-4.00664 -2.65723,-5.43179z" fill="#e1e1e0"/><path d="M110.0896,38.93262l0.60981,0.06387l0.09316,0.14092c-8.23301,5.55146 -15.20977,11.24429 -21.38101,19.1584c-8.20327,10.4877 -15.52603,21.42642 -20.34712,33.91626c-1.86211,4.82402 -3.12524,9.38467 -4.52666,14.31782c-0.33032,1.16279 -2.37803,4.39468 -3.0832,6.0082c-3.38643,7.62803 -5.66499,15.70107 -6.76626,23.97407c-2.83535,20.60259 1.96934,41.10747 14.57974,57.72466c14.6127,19.2583 42.16699,32.61328 65.73486,35.90771c20.94434,2.92822 38.13867,-3.27686 54.53613,-16.04443c3.07178,-2.39062 6.63135,-5.8916 9.41602,-7.98047l0.16846,-0.12598c-0.4834,0.97559 -1.32715,2.18994 -1.875,3.19922c-2.70264,4.98486 -5.83447,9.36621 -9.56396,13.65527c-6.25195,7.58936 -17.28223,15.04248 -26.8623,17.44043c-26.92178,6.74121 -56.27827,-1.47656 -78.93149,-16.56885c-14.11802,-9.40576 -26.81836,-20.91797 -35.05518,-35.88574c-12.20859,-22.18652 -11.87109,-49.00957 -5.15522,-72.84771c9.05859,-32.00669 31.20659,-59.39136 61.60986,-73.21216c2.08667,-0.94849 4.88584,-1.72778 6.79937,-2.8415z" fill="#e1e1e0"/><path d="M171.14795,56.23623c1.06201,-0.01743 2.58105,0.21577 3.68555,0.34805c5.40381,0.64146 10.72852,1.82666 15.89502,3.5373c24.78955,8.06089 50.74805,27.50889 62.45508,51.11777c11.78467,23.76504 10.96289,49.87441 2.86377,74.51895c-10.19385,31.8457 -32.72461,58.27734 -62.55469,73.38428c-1.07812,0.63428 -10.97314,4.87939 -11.34668,4.69336c1.0957,-0.98877 2.54443,-1.70508 3.55371,-2.53857c2.50488,-2.06982 5.64404,-4.29053 8.00391,-6.46875c13.94238,-12.86719 26.40088,-31.73145 34.16162,-48.98584c1.27588,-2.8667 2.45068,-5.77734 3.52002,-8.72607c0.44531,-1.22021 1.32275,-4.021 1.82959,-5.04639c1.09277,-2.15625 2.625,-4.05615 3.7207,-6.22266c12.29883,-24.34131 11.70264,-52.64751 -2.29834,-76.00342c-10.51025,-17.14219 -26.43604,-30.2918 -45.25635,-37.36992c-4.51611,-1.69087 -8.23828,-2.54795 -12.8335,-3.69478c-0.95361,-1.72925 -4.96729,-10.82197 -5.39941,-12.54331z" fill="#e1e1e0"/><path d="M137.89424,33.72759l1.46426,-0.08364c-0.84917,2.70029 -3.32183,7.64458 -4.45005,10.39175c-0.67017,1.6314 -3.1188,7.31396 -3.923,8.63906c-0.6186,0.37939 -1.47627,0.69463 -2.15728,0.95596c-10.36128,3.97646 -18.35771,12.23789 -24.82661,21.00293c-18.95171,25.67798 -25.91763,59.18335 -21.33955,90.52017c2.97773,20.38184 12.26367,39.49072 29.3335,51.63721c1.47158,1.05322 3.01055,2.00684 4.4707,3.0835c-3.35259,-0.9126 -7.0957,-2.47705 -10.33521,-3.7793c-0.95127,-0.59912 -2.75303,-1.42529 -3.82354,-1.98486c-1.83296,-0.9668 -3.62095,-2.01562 -5.35825,-3.14502c-38.19053,-24.35303 -36.06724,-83.09297 -20.63979,-120.08379c2.79478,-6.57437 6.16128,-12.89062 10.06069,-18.87627c12.13784,-18.89517 29.22861,-33.40459 51.52412,-38.27769z" fill="#e1e1e0"/><path d="M160.86768,32.98433c5.39795,0.66006 10.05762,1.25566 15.41309,2.40322c12.4043,2.70967 24.22705,7.60313 34.91895,14.45186c14.69531,9.33955 26.78027,22.25537 35.12402,37.53853c0.77344,1.425 3.41162,6.31963 3.71777,7.70229c-0.63135,-0.54214 -1.14258,-1.37476 -1.64062,-2.04976c-16.61133,-22.56738 -43.97314,-38.2125 -71.84912,-41.04844c-2.56787,-0.26118 -5.1958,-0.30806 -7.79297,-0.61875c-1.26855,-2.94492 -7.73437,-16.45049 -7.89111,-18.37896z" fill="#e1e1e0"/><path d="M106.67051,187.67285c7.5271,0.27979 15.83159,0.12158 23.40308,0.12451l40.22329,0.03223l15.29883,0.03076c2.26904,0.00293 6.22705,-0.11719 8.37598,0.09814c1.29639,2.05811 3.78955,8.04346 4.86328,10.4707c-0.70166,0.9375 -2.64111,2.69824 -3.54199,3.52441c-1.10303,-2.26025 -2.354,-5.26758 -3.32227,-7.604c-0.67969,-1.68018 -0.62109,-2.01709 -2.64258,-2.02148c-4.69043,-0.01172 -9.38379,0.00879 -14.07568,0.00879l-29.31416,-0.00146l-24.22104,-0.00439c-3.99507,0 -9.10137,-0.14795 -13.00254,0.06885c-1.20718,2.74072 -2.83506,6.94482 -4.11914,9.479c-1.06758,-0.98291 -2.70674,-2.39062 -3.52295,-3.51123c1.1855,-3.11572 2.90039,-6.87598 4.37314,-9.90088c0.31538,-0.64893 0.64219,-0.65479 1.22476,-0.79395z" fill="#e1e1e0"/><path d="M122.48247,70.32861l0.15396,0.03223l0.14502,0.23423c-0.37998,1.51421 -3.30645,8.54546 -4.30547,9.80845c-0.53101,0.67134 -5.36704,3.75483 -6.71001,4.77451c-5.66147,4.36655 -10.6916,9.49556 -14.94712,15.24097l-0.14883,-0.04629l-0.12422,-0.24155c0.18311,-1.22021 2.63525,-6.69932 3.23452,-7.9623c2.41245,-5.08491 6.52603,-11.64771 10.65176,-15.46787c2.23257,-2.06719 9.11836,-5.34741 12.05039,-6.37236z" fill="#e1e1e0"/></g></svg></svg>
